ply
format ascii 1.0
comment PCL generated
element vertex 894
property float x
property float y
property float z
element camera 1
property float view_px
property float view_py
property float view_pz
property float x_axisx
property float x_axisy
property float x_axisz
property float y_axisx
property float y_axisy
property float y_axisz
property float z_axisx
property float z_axisy
property float z_axisz
property float focal
property float scalex
property float scaley
property float centerx
property float centery
property int viewportx
property int viewporty
property float k1
property float k2
end_header
11.836362 28.118183 29.70031
12.654545 27.87273 29.700315
62.999889 23.249998 32.700336
64.221596 23.313255 32.461807
10.769388 25.983669 31.65135
13.426383 25.555218 31.054935
16.151617 25.461288 31.842264
18.245453 26.154551 32.46397
65.032082 25.030437 32.423843
66.299919 25.349997 32.70034
10.564417 28.350916 30.738375
13.633501 28.503002 31.167309
16.257832 27.444586 32.360603
18.1 27.1 32.600334
62.999889 28.799999 32.70034
64.236862 28.783562 32.667469
10.989474 30.949627 31.775534
13.322097 31.276745 31.985201
15.066667 31.777779 32.611446
13.538462 33.153843 32.561882
11.325005 23.599998 34.750359
13.393226 23.486435 35.196968
15.855561 23.73333 34.817032
59.64592 23.340002 34.992367
61.804398 22.588942 34.331524
64.811958 22.108618 34.117607
66.981499 23.008797 34.663559
10.453988 24.995714 34.119381
13.145221 24.216537 34.296875
16.860003 24.286377 34.047619
18.522665 25.762493 34.345661
59.253746 25.279491 35.031132
61.754433 25.352722 34.274895
64.044586 25.817644 33.3815
67.440933 25.431147 34.215137
14.614289 29.314287 33.00034
16.411428 28.779985 33.366047
18.810543 28.242857 34.394161
59.089844 28.413424 34.935242
61.879566 28.4375 34.130054
64.826881 28.101007 33.159317
67.358391 28.361925 34.413448
10.772726 32.31818 33.254894
14.700003 30 33.000343
16.403034 31.440929 34.020058
18.819561 31.210867 34.785133
59.634682 30.19565 35.465591
61.867779 30.989786 35.050007
64.595589 31.065718 34.24749
66.846733 30.505058 34.861118
11.3407 33.645348 34.427113
13.373528 34.377937 34.397434
16.213501 34.346996 34.878361
18.659996 35.460007 35.448368
59.68325 34.238888 35.550365
61.599876 34.394558 35.151299
63.426815 34.97308 35.561916
11.607144 37.164288 35.128937
13.240592 37.208824 34.279778
16.323156 37.359467 34.680328
19.048519 37.003963 35.314228
59.899895 36.100002 35.600368
61.684788 36.579063 35.403862
63.399887 36.266666 35.700375
11.8875 39.799999 35.175354
13.486364 40.155674 34.897526
15.315251 39.772892 35.313919
14.042308 42.323074 35.700375
15.149999 42.100002 35.700367
62.69989 20.999998 38.400398
64.985359 20.432726 37.876743
66.985138 19.895452 36.821976
9.3600006 21.84 38.280396
14.195883 22.31134 36.721001
15.817844 22.884066 37.542404
59.73275 23.400003 37.120697
61.557018 22.193642 37.552746
64.605034 21.574369 37.177319
67.230179 22.114679 36.762779
11.700005 26.700003 36.960381
12.790251 26.414637 37.141842
17.011564 25.158379 37.49691
18.223251 26.141857 36.439915
58.896931 25.316769 37.432076
64.781891 25.97999 38.574398
68.427826 25.576746 36.432934
11.528057 28.247564 37.090611
13.073043 28.321331 37.580181
17.580006 27.612 38.376392
18.616991 28.505663 37.224911
58.427002 28.519894 37.452351
64.811668 27.523525 38.541576
68.51046 28.685532 36.659607
69.29995 29.449999 37.600388
13.360718 31.800003 38.282543
16.86198 32.112389 38.063179
18.651005 31.171432 37.169762
56.705795 32.423531 37.782745
58.880173 31.40246 37.255966
61.322258 32.048679 36.209587
64.882294 31.918303 37.413765
67.597977 31.134153 37.611641
69.385658 30.514282 38.421825
11.442859 34.096657 37.152477
12.817243 33.706024 38.009892
16.759613 33.767307 37.390808
18.85 35.082497 37.332882
56.131588 34.341671 37.557076
58.263672 34.596851 36.442108
62.635597 33.171429 36.086086
64.693489 34.273899 37.25214
17.342857 38.585724 36.114658
19.859032 37.440987 37.161068
56.281105 37.410892 38.269703
58.830238 37.203384 37.461632
61.502842 37.785282 36.373894
64.498299 37.301052 37.306179
12.374999 41.625004 36.000374
16.607298 40.357655 36.539078
19.512663 40.34819 37.531132
56.372631 39.340912 38.359486
59.056221 40.137344 38.014915
61.629665 40.585068 37.374928
64.037178 39.866947 37.874123
13.581653 43.624252 36.97319
16.264868 43.283772 37.393635
19.098913 42.593472 37.891693
19.983871 50.699989 38.419754
21.299992 50.700001 38.700401
17.157978 52.661346 37.913837
19.467609 52.229 37.55151
22.393118 52.443756 37.884762
53.060623 52.917847 38.446831
55.696629 52.664761 38.351208
57.806156 53.118744 38.419144
17.021374 55.336559 37.89558
19.638979 55.501709 37.144436
22.264915 55.088055 38.033211
53.278633 54.517029 38.553593
55.599922 55.515251 38.090199
57.848465 55.084286 38.396107
17.849998 57.000004 38.600399
19.798241 58.245613 37.991619
22.606209 58.44595 37.945717
24.694984 58.994991 38.215389
53.87492 59.450008 38.625401
55.029453 58.793179 38.639042
19.845867 61.424133 37.742153
22.667856 61.417858 37.293224
24.72151 61.02911 38.164951
53.445835 61.359184 38.293247
55.051308 61.390652 38.347115
20.639996 63.105003 38.415398
22.766272 64.026016 37.970798
24.928844 64.846176 38.109062
52.535213 64.588234 38.700401
54.299915 63 38.700405
23.444822 66.975853 37.979725
25.608997 67.522903 37.371704
27.368559 67.980019 38.331833
49.974735 67.651077 38.357208
51.681183 67.018753 38.556652
26.075512 69.104095 38.173866
28.614363 70.501671 38.211445
31.554186 70.873596 38.038452
37.049976 71.700005 38.700401
44.23632 71.109108 38.700401
45.479958 71.250008 38.700401
49.389416 69 38.574081
31.543634 72.1091 38.367676
34.565994 72.794983 38.535408
37.049984 72.583923 38.518269
16.759096 23.195454 39.232235
59.431488 23.360527 39.639889
60.699898 22.530005 39.110409
17.580826 25.031513 39.625061
18.135212 26.083096 40.196194
56.999893 26.22353 41.294544
58.608105 25.472126 39.921757
60.839893 24.719999 39.240406
64.580383 25.870722 39.558922
68.999939 26.25 41.700432
69.29995 26.700003 41.625435
17.636848 28.507896 39.592514
18.196167 28.290001 40.477345
56.999893 27.511765 41.488667
58.872128 28.37756 40.447803
61.052948 29.161224 40.243271
64.598373 27.755718 39.753834
69.374947 27.575003 41.425426
14.150005 32.450001 39.175411
16.729998 31.46332 39.873745
18.000002 31.16 41.220428
56.795029 32.473167 39.871147
58.597965 31.376738 40.59697
61.594231 30.805637 40.280685
64.367882 31.575996 39.728413
68.152298 32.347614 39.40041
69.645226 32.026417 40.058907
13.71429 33.421425 39.22184
16.932444 34.080318 40.380733
18.414999 35.154991 39.810413
56.06905 34.275429 40.423271
57.299904 33.074997 41.700432
65.731499 34.384216 39.458298
67.485733 34.14312 40.462002
69.647942 33.179996 41.376431
13.821568 37.690193 40.727863
16.254547 37.427269 41.37315
19.224997 37.345318 40.389439
55.589546 37.388954 40.420498
62.249897 36.806252 41.644188
65.705002 37.533329 40.144005
66.504768 36.731709 41.422379
13.844683 39.210644 41.119572
15.000002 39 41.400429
19.757385 40.449188 40.479111
56.316845 39.715378 40.216564
58.553135 40.993549 40.331078
61.687897 41.335999 40.468388
64.551544 40.179993 40.353718
13.811193 43.535812 40.466839
16.502958 43.421677 40.522591
18.867857 42.602692 40.071857
19.875 50.699986 40.316322
21.54999 50.699986 40.308762
53.687408 50.700001 40.975422
55.236263 50.69997 40.641315
16.791519 52.469513 40.347851
18.422443 51.110218 40.5494
22.791849 52.157616 40.400963
52.391876 52.086258 40.206097
56.096718 51.178738 39.785522
58.304455 52.517147 40.354679
16.027115 55.481361 40.293617
20.714277 56.528576 41.514717
22.413818 55.316494 40.439754
52.581882 55.373123 40.176559
56.899899 56.700001 39.000401
58.864223 55.514641 40.273556
17.338097 57.142872 40.357567
19.155313 58.146343 40.566818
22.787697 57.336853 40.51273
25.019587 58.510128 40.334167
50.440254 58.825214 40.573532
52.572037 58.026897 39.935013
56.118061 58.276726 39.978539
57.744343 57.20557 40.85043
18.726509 61.443977 40.317902
23.999989 62.340004 41.700432
24.899994 61.352695 40.385426
50.487526 61.151825 40.544205
52.0592 61.3699 39.449078
56.328262 61.48666 40.27874
20.122221 63.469433 40.40596
22.024998 64.611397 40.270866
25.972305 63.853817 40.081959
27.730291 64.678772 40.88224
47.751003 64.863823 41.419579
49.701775 64.309204 40.474136
52.809219 64.401779 39.985359
54.971191 63.400974 40.509335
22.862427 67.423691 40.337368
25.139996 67.728004 39.288414
28.520281 67.359406 40.332291
31.432825 67.815674 41.111614
34.94997 68.549995 41.700439
36.299973 68.700005 41.700432
43.906204 68.462471 41.487926
47.369915 67.616013 40.810398
49.304283 67.147827 39.561272
52.318653 67.381248 40.351963
23.999998 69 40.928993
25.514381 69.441742 40.385345
28.398632 70.641106 40.146965
31.925478 69.900017 40.006275
34.618488 70.439941 40.401413
37.432442 70.749741 40.569504
40.82061 70.893784 40.781666
43.551472 70.386955 40.10078
46.752319 70.596397 40.219902
49.234318 69.765579 40.50666
31.730068 72.299973 40.12825
34.444973 73.146828 40.273193
37.83033 73.147781 40.170074
40.523178 73.085411 40.119308
43.137589 72.302963 40.35191
46.046471 72 40.235306
56.999908 26.700001 42.000435
68.999939 26.549999 42.000435
69.29995 26.999996 42.000435
17.556828 28.765911 42.545883
18 29.290911 42.082249
56.999905 28.709299 42.607418
57.520966 29.384211 42.095169
69.584145 28.902634 42.829391
17.562969 31.444441 43.785618
18.000002 31.359571 42.472771
56.999912 31.099998 43.987961
57.860764 31.502172 42.746113
68.999939 30.900003 44.250454
69.6688 31.180328 43.839813
17.686964 33.978264 43.441757
18.000002 34.540005 43.150444
56.803753 34.725002 42.75621
57.682541 34.201794 43.428589
68.344116 35.17326 42.712074
69.990463 34.662926 43.314255
14.700005 38.699997 42.000435
17.66667 36.677776 42.422661
18.275751 37.504414 43.370331
56.537666 37.285717 42.591259
57.712719 37.556404 43.954304
62.184261 36.824997 42.216068
65.966568 38.600002 42.233765
67.330666 37.298019 43.467785
69.518135 36.081818 44.618645
14.700001 41.700005 42.600441
16.984821 41.24464 42.970074
18.411995 40.159855 43.284988
56.868645 39.224998 42.22543
58.699524 40.095005 43.524719
61.5989 40.549496 43.210651
64.689636 40.278152 43.374851
66.388145 39.088234 44.206333
13.923852 43.128426 42.903198
16.417744 43.067741 43.253654
18.522577 43.437096 44.323025
59.091087 42.904404 44.594578
61.349903 42.462864 44.447598
14.267214 46.214741 44.238155
16.407873 46.344097 43.842953
19.081127 46.539612 44.233463
14.565309 49.181629 44.20454
16.447828 49.273922 43.602638
19.856752 49.527592 43.639946
21.502928 50.073532 44.418098
53.768082 50.700008 42.845894
55.58593 50.100002 43.963715
58.192207 49.676922 44.600433
14.842857 51.885712 44.014744
16.317677 52.438683 43.235241
19.186357 51.92046 42.770882
21.953957 52.358749 43.329044
52.795597 52.238949 43.359097
56.150475 51.492134 43.446499
58.673332 52.347858 43.481968
16.412094 55.607449 43.409744
19.853264 55.800034 43.315414
22.231316 55.228027 43.792244
24.29998 56.699997 44.700459
53.259895 54.973991 42.976456
55.350872 55.974545 43.76516
59.04549 55.650806 43.502029
17.480488 57.373177 43.895573
19.498749 58.446251 43.520428
22.517649 57.743355 43.196053
24.932461 58.543953 43.555889
50.499104 58.710747 43.269871
52.640846 57.611397 43.329983
55.96384 58.147202 43.237965
57.64349 57.943546 42.692383
19.047613 61.471443 43.421085
23.252333 62.151569 43.462933
25.526913 61.39616 43.651695
27.625502 62.355309 44.074921
47.76659 62.39999 44.142132
49.92886 61.757854 43.313271
52.199909 61.910011 44.050438
56.683544 62.023632 43.47047
57.299873 60.610176 43.297062
20.202269 63.334061 42.995914
22.677013 64.041389 43.219971
24.9739 63.17392 42.965687
28.523657 64.574715 43.546535
30.918974 65.289864 43.777657
35.004513 65.645447 44.591362
44.440857 65.454536 44.14819
46.980232 64.515495 43.497654
50.209023 63.027271 43.500446
52.845875 64.109558 43.444447
55.204903 63.379993 43.345448
22.791431 67.505135 43.375317
25.947491 68.225014 44.000492
28.245882 66.979408 43.622215
32.166119 67.082253 43.295616
34.608608 67.082306 43.217247
37.541077 67.706856 43.593597
40.54538 67.65242 43.617237
43.483124 67.274292 43.14999
46.592251 67.040558 43.047306
49.291599 68.449997 44.542114
52.432545 67.533691 43.33202
23.999996 69 42.300438
25.331635 69.177505 42.768803
28.306402 70.468964 43.360073
31.693178 70.963867 43.698017
33.221046 70.989479 44.479401
37.861141 70.127197 42.952873
40.606407 69.343582 42.21336
43.665329 71.314949 43.401257
46.909077 70.936417 43.498871
49.487206 69.545433 43.082256
32.635715 72.10714 42.364723
34.42857 72.512436 43.339729
37.59483 72.623215 43.291424
40.601654 72.849991 43.388783
42.462826 72.188583 42.806149
17.300003 32.700001 45.050461
56.999897 32.146156 45.069695
57.299908 32.399998 45.400467
68.999939 31.650002 45.150467
69.86245 32.371872 45.319225
17.616009 34.278 45.738472
18.000002 35.386959 45.600479
56.930706 34.634613 45.850483
57.299904 33 45.900475
70.371384 34.500004 45.614761
13.773919 38.634789 47.648319
15.630007 38.430004 47.58049
18.369936 37.357906 46.396702
56.571331 37.343571 46.425484
58.091908 37.896008 45.852482
61.25444 38.590916 47.536861
68.274117 38.056454 45.895634
70.192543 37.075932 46.506054
13.837207 40.193024 46.256294
16.287846 40.42704 46.203213
18.979534 40.327271 46.336857
56.278034 40.447498 46.507973
58.620312 40.395908 47.022923
61.544334 40.324432 47.384956
65.222565 41.062782 46.097561
67.104942 39.761871 46.718468
14.03871 43.345146 46.497269
16.406324 43.379742 46.470104
19.340611 43.466255 46.346737
55.735134 43.460796 46.411541
58.541286 43.338612 46.399128
61.846359 43.597195 46.169445
63.899883 42.529423 46.81813
14.430002 45.120003 47.430489
16.46953 46.279694 47.264576
19.909758 46.415134 46.493172
21.299988 47.700001 47.520489
53.744701 46.974625 47.096001
55.397285 46.294743 45.834171
58.781723 46.404545 45.134552
61.053894 46.195992 46.68248
16.874027 48.693512 47.264145
19.678377 48.551353 46.553173
21.76738 49.547825 46.537453
53.099903 49.404324 46.270222
55.27248 48.541939 45.300484
59.363434 49.025677 45.178852
60.536465 49.384605 46.512001
15.3 53.600006 47.350483
22.740372 52.459015 46.412945
52.490025 52.447254 46.327438
59.856098 52.849312 45.764858
60.386536 51.900005 46.520473
15.965961 55.736164 46.468563
20.274185 56.032253 47.28437
23.205254 54.992104 46.118904
24.976538 55.771038 46.699089
50.502941 55.824242 47.033813
52.358162 55.249443 45.717484
55.454319 55.906311 45.156185
58.948284 55.42263 46.292053
17.229414 57.986252 46.222042
18.6 58.891296 46.804832
21.299988 57 47.700489
26.191505 58.096607 46.044548
27.849331 59.127262 47.05373
47.601749 59.08363 47.335018
49.586658 58.285316 46.31419
52.299911 57.250008 45.133804
56.296467 58.419827 45.613415
57.795006 58.034134 46.705353
19.431946 61.348618 46.35183
21.449997 62.699997 45.000465
26.849977 60.214283 45.107609
28.824306 61.208111 46.115326
31.171398 62.260708 47.189751
44.494678 62.384201 47.439957
46.72316 61.329365 46.476303
49.719753 61.008617 45.341839
52.750271 61.978199 45.729046
55.76646 61.521069 46.272369
20.788891 63.17778 46.500481
22.127188 64.323769 46.233978
29.488619 63.770458 45.116379
31.786266 64.043983 45.898758
34.680801 64.421898 46.397736
37.758591 64.857925 46.877041
40.541138 64.813751 46.824009
43.670517 64.295578 46.413689
46.574463 64.460861 45.699238
50.999931 63 45.000465
52.608219 64.205833 46.396542
54.299923 63.000011 47.700489
23.206955 66.840004 46.033531
25.483328 67.503075 46.268669
28.055624 67.64624 46.161129
32.561516 67.646172 45.365871
34.110508 67.031593 45.337311
37.52467 67.546913 45.935047
41.157116 67.26123 45.896404
42.807987 67.572586 46.152088
47.066292 67.221947 46.279503
49.552563 67.539452 46.305702
52.090477 67.043396 46.217449
28.979065 69.81395 46.086502
31.183786 69.831841 46.294537
34.351223 70.5037 46.370117
37.548603 70.126083 46.152966
40.884701 70.721062 46.856419
43.520809 70.192978 46.275463
46.392441 69.936417 46.141521
34.992001 72 45.144478
38.625004 72.125008 45.250469
40.216438 72.184921 45.510082
13.770003 38.079998 48.140499
15.557148 38.471428 48.329067
18.4625 38.1875 48.300503
55.937054 38.031418 48.41193
59.124393 38.259186 48.404587
61.535488 38.242355 48.427631
64.069466 38.530434 49.109203
70.697342 38.131588 48.470242
16.629423 40.555878 49.026955
19.009094 40.572723 48.964142
55.192997 40.619999 49.059731
58.042831 40.487644 49.394619
62.734283 40.168751 48.5755
64.228149 40.541286 49.587467
67.95784 40.801579 49.061592
69.675995 39.67606 49.504734
13.866669 44.666672 48.100498
17.048519 43.162724 49.555553
19.458939 43.544636 49.30764
53.830204 44.182892 49.615005
55.776554 43.333778 49.204426
58.651543 43.958233 48.669735
61.656197 43.543255 49.217052
64.619232 43.439777 49.366692
66.899895 42.622231 50.122761
14.481824 46.172737 49.200512
15.326737 46.428707 48.665833
19.417627 46.250404 49.366528
21.299988 47.416664 49.250511
53.045193 46.411335 49.221245
55.874908 46.433723 49.190048
58.830933 46.305729 49.086731
61.814659 46.588783 49.437305
63.821415 45.590767 50.091309
14.699999 48.085716 50.357658
16.444384 48.901718 49.269596
18.552164 48.573914 49.209198
22.084753 49.249683 49.353477
52.033443 49.325806 49.299206
56.05077 48.698254 49.409988
58.530479 48.775803 49.296024
60.976852 49.261185 49.476833
15.51 53.640007 49.650517
23.273367 52.309078 49.307629
24.299984 53.700008 49.588749
50.637314 52.862617 49.610054
51.492737 51.677151 48.814781
59.970512 53.335278 49.247574
60.396305 51.864288 49.468353
16.641356 55.331924 49.308834
20.145403 55.757858 49.33836
21.921568 55.672653 49.429283
25.625502 55.297955 49.296928
47.930698 56.630775 50.354366
49.459404 55.405518 49.256016
53.519905 54.91 50.400517
58.841618 55.427814 49.402615
17.653843 57.230766 48.162033
18.965429 58.343624 49.285103
21.642841 57.025719 49.157658
26.909075 57.154545 48.964153
28.554396 58.576473 49.362251
30.399973 59.700005 50.433857
44.916607 59.58334 50.183853
46.643883 58.296852 49.277184
48.494045 57.158821 48.265205
56.712822 58.987106 49.79406
57.567284 57.818485 48.913548
20.209801 61.098045 49.116165
21.423208 62.30357 50.014801
29.822701 60.177269 48.300499
31.654272 61.11142 49.254814
34.488129 62.115788 49.571552
37.601006 62.295807 50.065788
40.857841 62.17894 49.974186
43.675617 61.305408 49.234341
45.590256 60.329033 48.290821
53.747284 62.33683 50.139996
55.367905 61.19249 49.236504
22.591871 64.271759 49.286625
24.516665 65.508331 50.367199
35.29351 63.096779 48.252098
37.649956 63.406651 48.557163
40.602482 63.326603 48.516968
42.412441 63.075001 48.112995
50.506184 65.412491 50.16927
52.590218 64.25972 49.314419
54.299919 63 48.1805
23.67692 66.069229 48.323574
25.567795 66.723701 49.244583
28.338936 67.823677 49.51947
31.267504 68.362534 49.943035
34.584 68.543983 50.256535
37.633327 68.616631 50.333866
40.724995 68.700012 50.029465
43.619972 68.404053 49.40453
46.615208 67.555969 49.33778
49.421394 66.436874 49.172325
51.41531 66.115387 48.277424
29.699999 69 48.0005
31.924278 69.077141 48.587654
34.75909 69.177284 48.658459
37.678558 69.035713 48.886211
40.431961 69.460823 48.473698
44.345417 69 48.000492
45.479958 69 48.000496
54.599915 41.700005 51.00053
57.524902 41.700001 51.000526
64.933243 41.766666 51.100521
68.812447 41.587502 51.075523
16.866179 43.773529 51.357883
19.655996 43.853989 51.456532
53.769566 44.207142 51.718395
56.180683 43.665379 51.435154
58.748024 44.109016 51.817089
61.499901 44.189068 51.848949
64.605583 43.70454 51.559616
67.139313 43.476921 51.718788
17.605888 45.635292 52.32407
19.584873 46.5966 52.247398
21.299988 47.606262 51.69429
53.031731 46.490913 52.334633
55.97327 46.406487 52.352478
58.791798 45.432426 52.07082
61.240849 46.616402 52.233318
64.637047 46.411427 52.304832
66.299911 45 52.920544
14.700003 48.120003 51.600536
16.33902 48.883549 52.326736
18.426659 48.453331 52.373867
21.90592 49.35788 52.368305
51.867691 49.361073 52.36562
56.037827 48.638794 52.278133
58.707756 48.786415 52.316257
61.822433 49.210613 52.290829
63.53426 48.300003 53.259918
15.829412 53.647068 52.571136
20.039989 52.379997 53.70055
23.299246 52.132828 52.334908
24.470434 53.509083 52.589172
50.385719 52.497963 52.360668
53.149902 52.595009 53.275539
54.530678 52.523075 53.585167
59.84074 53.436729 52.310745
60.751091 51.916794 52.426178
16.904892 54.889503 52.315926
18.538092 56.366661 52.233879
21.797546 56.121956 51.490776
25.904829 55.285473 52.339291
27.399977 56.600002 53.320557
47.663563 56.363621 52.614185
48.908997 54.956821 52.275562
53.235867 54.645313 52.455177
56.549908 56.299999 53.500549
58.353901 55.318718 52.31448
19.590172 58.387287 52.35141
26.999977 57 51.100525
28.742544 57.89999 52.272373
31.319492 59.285164 52.666969
33.652908 59.647068 53.488792
41.512447 59.643757 53.606804
44.040806 59.19418 52.655991
46.222382 57.765305 52.269913
56.114155 58.473175 52.390064
57.299908 57 51.00053
20.642559 60.421276 51.779251
22.106358 61.687305 52.552898
24.449997 62.700005 53.700554
32.268391 60.215809 51.568951
34.701233 60.618973 52.177734
37.643684 60.829945 52.346054
40.580315 60.739288 52.238018
43.010235 60.330891 51.666695
50.939934 62.700005 53.640556
52.971603 61.790012 52.548882
54.703899 60.388016 51.996521
23.379999 63.583992 51.676525
25.369751 64.346329 52.341019
28.104647 65.153481 52.823799
31.049995 65.618164 53.352821
33.299995 65.700005 53.700554
44.218151 65.609077 53.446007
46.85606 65.082924 52.898125
49.679363 64.320557 52.326679
51.840786 63.481678 51.617435
26.52 66 51.000526
28.670368 66.385185 51.43758
31.503849 66.753822 51.814014
34.513195 66.918106 52.251625
37.451614 67.407127 52.272182
40.618813 67.372299 52.259953
43.561695 66.961685 52.010281
46.424961 66.576912 51.545723
48.646103 66.069229 51.069759
19.9909 47.481815 54.082375
52.919918 47.200005 54.200554
55.799908 47.310005 54.255562
58.574898 47.999996 54.900566
61.363537 47.390907 54.300564
64.965416 47.182762 54.228153
16.440659 49.176918 54.653343
18.966661 49.17778 55.000576
22.056965 49.754639 54.813351
51.947575 49.603752 54.976269
55.685432 49.527637 55.350555
58.606354 48.25647 54.392479
62.53141 50.190399 55.003304
63.791145 48.918739 54.848061
16.005882 53.629421 54.812332
19.957048 52.379185 55.518738
23.106812 51.995445 55.405113
24.852924 53.194111 55.612362
50.033073 52.420738 55.432182
52.997608 52.409828 55.452065
55.2075 52.659016 55.581959
59.8255 53.511612 55.361038
61.230946 52.040844 55.323147
17.018177 54.913628 55.341499
19.520189 55.820198 55.480389
22.218418 55.518387 55.596607
26.004423 55.012737 55.34964
28.147293 56.164139 55.592182
44.785648 56.635719 56.486294
46.924385 55.744141 55.521324
49.295914 54.972008 55.533592
52.951168 54.617641 55.399734
55.309162 54.636379 55.420872
58.327206 55.191254 55.359295
19.740692 58.274998 55.345367
22.623524 58.1647 56.25058
25.09284 57.535725 56.347015
29.388433 57.326923 54.908272
31.61145 58.131138 55.323509
34.583107 58.930164 55.327091
37.642075 59.125687 55.437424
40.692204 58.771858 55.384567
43.606846 57.9319 55.240452
45.704586 57.22327 54.593586
50.587421 57.074997 56.625587
53.549915 59.250004 56.200577
55.643204 58.365658 55.321472
20.999998 60 54.780567
22.528574 61.060295 55.264065
24.829214 62.416851 55.551132
32.501869 61.833958 56.485527
35.037075 62.138714 56.32803
37.30191 61.680561 55.815151
41.183289 60.883335 56.250572
42.29995 60.900005 56.700581
50.016727 62.29665 55.545956
52.610622 60.965763 55.229496
54.299915 60 54.000561
26.092207 63.229874 54.978504
28.375862 64.167244 55.321304
31.431549 65.124184 55.353642
34.20594 65.168335 55.830292
37.436722 63.807823 55.901833
41.519981 65.609978 55.800591
43.696667 65.115852 55.323761
46.658485 64.014198 55.30455
48.904861 63.191822 54.748096
35.127773 66.072227 54.761677
37.439163 66.381775 55.334846
40.20789 66.273674 55.095318
19.958813 52.982342 57.277046
21.812889 53.196774 57.34898
25.342077 53.163166 57.34795
47.99992 53.700001 58.020599
49.064625 52.941177 57.377045
52.289898 52.970005 57.375565
56.071526 52.585114 57.268127
59.637833 53.44138 57.71439
60.96476 52.337837 57.243832
17.174112 55.125885 57.918232
19.849047 55.669819 58.142113
22.640936 55.344982 57.731464
25.535482 55.794666 58.20594
28.718332 55.561222 57.951603
31.022343 56.463146 58.749275
41.669945 56.655006 59.370625
43.770557 56.18811 58.399879
46.577484 55.06123 57.976089
49.630508 55.526482 58.160019
52.722023 55.373081 57.789505
55.405182 55.221718 58.263756
58.166344 55.302803 58.133453
19.719669 58.268848 58.385845
22.632061 58.077709 58.433731
25.851725 58.350002 58.27684
28.572166 58.507103 58.410027
31.772284 58.364624 58.489845
34.547657 58.123112 58.560589
37.682171 58.058308 58.48035
40.727345 58.13015 58.475925
43.568596 58.774715 58.724697
46.58992 58.3335 59.05106
49.698711 57.760853 58.571075
52.696693 57.966118 58.469948
55.600971 58.199989 58.318993
22.585135 60.768238 58.348587
25.214691 62.141964 58.456505
28.701284 60.832256 58.548965
31.447235 61.286896 58.337116
34.581936 61.15974 57.777
37.9086 61.192211 58.038979
40.502983 61.216576 57.66843
43.597515 61.449001 58.213711
46.466236 60.87978 59.201725
49.65979 62.068405 58.360447
52.417522 60.66127 58.295658
26.600004 63.000008 57.972023
28.361078 63.660393 58.359657
31.713808 64.397202 58.384575
34.670147 64.291786 58.389751
37.6441 63.85149 58.152081
40.685978 64.310432 58.468204
43.534313 64.442139 58.440975
46.531422 63.467827 58.265617
37.468426 66 58.350609
39.58181 66 58.046062
26.999977 56.699997 60.000622
27.299976 56.699997 60.000618
32.519966 56.700005 60.000622
41.199947 56.699997 60.000622
47.362431 56.587502 60.000614
55.64991 56.587505 60.075619
57.299904 56.400002 60.000622
20.001724 58.536213 60.435112
22.631702 58.536575 60.498177
26.120779 58.990105 60.594654
28.90283 57.642868 60.18063
31.694336 58.63522 60.435822
34.690056 58.880173 60.564972
37.633617 58.853443 60.597626
40.522533 58.693531 60.52319
43.664726 58.225346 60.389351
47.139557 58.171715 60.227032
49.376396 58.55294 60.715298
52.991398 58.589367 60.705921
55.31591 58.336002 60.572609
22.856749 60.667576 61.084419
25.645102 61.777164 61.342449
28.637732 61.558495 61.338371
31.018476 62.158016 60.943512
43.95216 62.291912 61.410179
46.761871 61.178726 61.308765
49.510639 61.635689 61.336323
52.236443 60.581738 61.174564
28.346161 63.590382 61.360256
31.791779 64.279373 61.451298
34.436138 64.445824 61.182529
37.552284 64.464226 61.321682
40.803791 64.253197 61.241108
43.457386 64.170982 61.194817
46.324951 63.374989 61.350613
35.23333 66.061119 61.750637
37.36047 66.153465 60.928524
39.449986 66 60.769371
26.1 62.370007 63.180656
29.04705 62.276474 63.159481
30.67499 62.700008 63.300655
44.147953 62.424004 63.240658
47.188179 62.347069 63.212425
49.151943 62.052013 63.168648
28.664061 63.651562 63.549076
31.6581 64.540543 63.805359
34.502655 64.614166 63.773254
37.634197 64.547371 63.525654
40.934975 64.079987 63.455639
42.849964 63.220009 63.47065
46.694954 63.180004 63.180653
33.969231 66 63.277573
0 0 0 1 0 0 0 1 0 0 0 1 0 0 0 0 0 894 1 0 0
